<svg xmlns="http://www.w3.org/2000/svg" width="36" height="36" viewBox="0 0 36 36">
    <g fill="none" fill-rule="evenodd">
        <path fill="#FFF" d="M0 18C0 8.059 8.059 0 18 0s18 8.059 18 18-8.059 18-18 18S0 27.941 0 18z"/>
        <g fill="#3F93FF">
            <path d="M14.412 16.943v2.117h3.585c-.145.909-1.084 2.664-3.585 2.664-2.158 0-3.92-1.747-3.92-3.899s1.762-3.9 3.92-3.9c1.228 0 2.05.513 2.52.954l1.715-1.615c-1.102-1.005-2.528-1.614-4.235-1.614-3.495 0-6.321 2.761-6.321 6.175 0 3.414 2.826 6.175 6.32 6.175 3.649 0 6.07-2.505 6.07-6.034 0-.406-.046-.714-.1-1.023h-5.97zM27.957 16.943H26.15v-1.764h-1.806v1.764h-1.806v1.764h1.806v1.764h1.806v-1.764h1.806"/>
        </g>
    </g>
</svg>
