<svg xmlns="http://www.w3.org/2000/svg" width="36" height="36" viewBox="0 0 36 36">
    <path fill="#3F93FF" fill-rule="evenodd" d="M0 18C0 8.059 8.059 0 18 0s18 8.059 18 18-8.059 18-18 18S0 27.941 0 18zm14.706-.514v1.954h3.244c-.131.839-.98 2.46-3.244 2.46-1.953 0-3.546-1.613-3.546-3.6s1.593-3.6 3.546-3.6c1.111 0 1.855.473 2.28.88l1.552-1.49c-.997-.928-2.288-1.49-3.832-1.49-3.162 0-5.719 2.549-5.719 5.7 0 3.151 2.557 5.7 5.719 5.7 3.3 0 5.49-2.313 5.49-5.57 0-.374-.04-.66-.09-.944h-5.4zm12.255 0h-1.634v-1.629h-1.634v1.629h-1.634v1.628h1.634v1.629h1.634v-1.629h1.634v-1.628z"/>
</svg>
