<svg xmlns="http://www.w3.org/2000/svg" width="120" height="25" viewBox="0 0 120 25">
    <path fill="#FFF" fill-rule="evenodd" d="M8.803 12.524H19.38l4.773 9.79a.403.403 0 0 1-.362.58H4.392a.403.403 0 0 1-.362-.58l4.773-9.79zm1.004-2.059L13.73 2.42a.403.403 0 0 1 .724 0l3.922 8.045H9.807zM28.375 2h9.181a.51.51 0 0 1 .51.51V3.58a.51.51 0 0 1-.51.51h-7.651v6.268h7.651a.51.51 0 0 1 .51.51v1.07a.51.51 0 0 1-.51.51h-7.651v9.936a.51.51 0 0 1-.51.51h-1.02a.51.51 0 0 1-.51-.51V2.51a.51.51 0 0 1 .51-.51zm13.772 0h9.182a.51.51 0 0 1 .51.51V3.58a.51.51 0 0 1-.51.51h-7.652v6.268h7.652a.51.51 0 0 1 .51.51v1.07a.51.51 0 0 1-.51.51h-7.652v9.936a.51.51 0 0 1-.51.51h-1.02a.51.51 0 0 1-.51-.51V2.51a.51.51 0 0 1 .51-.51zM55.92 2h1.02a.51.51 0 0 1 .51.51v19.873a.51.51 0 0 1-.51.51h-1.02a.51.51 0 0 1-.51-.51V2.51a.51.51 0 0 1 .51-.51zm6.12 20.383V2.153c0-.084.07-.153.154-.153h.285c.045 0 .089.02.118.056l13.217 16.136V2.51a.51.51 0 0 1 .51-.51h1.02a.51.51 0 0 1 .51.51v20.23a.153.153 0 0 1-.153.153h-.286a.153.153 0 0 1-.117-.054L64.081 7.223v15.16a.51.51 0 0 1-.51.51h-1.02a.51.51 0 0 1-.51-.51zM83.466 2h1.02a.51.51 0 0 1 .51.51v19.873a.51.51 0 0 1-.51.51h-1.02a.51.51 0 0 1-.51-.51V2.51a.51.51 0 0 1 .51-.51zm4.08 1.579V2.51a.51.51 0 0 1 .511-.51h10.202a.51.51 0 0 1 .51.51V3.58a.51.51 0 0 1-.51.51h-4.08v18.294a.51.51 0 0 1-.511.51h-1.02a.51.51 0 0 1-.51-.51V4.089h-4.08a.51.51 0 0 1-.511-.51zM100.694 2h1.56c.053 0 .103.028.13.073l5.057 8.284 5.056-8.284a.153.153 0 0 1 .13-.073h1.56a.51.51 0 0 1 .437.774L108.46 12.97v9.414a.51.51 0 0 1-.51.51h-1.02a.51.51 0 0 1-.51-.51v-9.414l-6.164-10.195a.51.51 0 0 1 .437-.774z"/>
</svg>
