<svg xmlns="http://www.w3.org/2000/svg" xmlns:xlink="http://www.w3.org/1999/xlink" width="860" height="706" viewBox="0 0 860 706">
    <defs>
        <path id="a" d="M0 0h860v706H0z"/>
    </defs>
    <g fill="none" fill-rule="evenodd">
        <mask id="b" fill="#fff">
            <use xlink:href="#a"/>
        </mask>
        <g stroke="#3F93FF" stroke-width="1.2" mask="url(#b)">
            <g transform="scale(-1 1) rotate(-15 530.565 3769.058)">
                <rect width="304" height="304" x="410" y="63" opacity=".172" rx="18" transform="rotate(-127.8 562 215)"/>
                <rect width="304" height="304" x="380" y="63" opacity=".265" rx="18" transform="rotate(-131.4 532 215)"/>
                <rect width="304" height="304" x="349" y="63" opacity=".689" rx="18" transform="rotate(-135 501 215)"/>
                <rect width="304" height="304" x="319" y="63" opacity=".043" rx="18" transform="rotate(-138.6 471 215)"/>
                <rect width="304" height="304" x="288" y="63" opacity=".223" rx="18" transform="rotate(-142.2 440 215)"/>
                <rect width="304" height="304" x="258" y="63" opacity=".661" rx="18" transform="rotate(-145.8 410 215)"/>
                <rect width="304" height="304" x="227" y="63" opacity=".18" rx="18" transform="rotate(-149.4 379 215)"/>
                <rect width="304" height="304" x="197" y="63" opacity=".796" rx="18" transform="rotate(-153 349 215)"/>
                <rect width="304" height="304" x="166" y="63" opacity=".045" rx="18" transform="rotate(-156.6 318 215)"/>
                <rect width="304" height="304" x="106" y="63" opacity=".126" rx="18" transform="rotate(-163.8 258 215)"/>
                <rect width="304" height="304" x="75" y="63" opacity=".335" rx="18" transform="rotate(-167.4 227 215)"/>
                <rect width="304" height="304" x="45" y="63" opacity=".253" rx="18" transform="rotate(-171 197 215)"/>
                <rect width="304" height="304" x="14" y="63" opacity=".281" rx="18" transform="rotate(-174.6 166 215)"/>
            </g>
        </g>
    </g>
</svg>
