<svg xmlns="http://www.w3.org/2000/svg" width="94" height="94" viewBox="0 0 94 94">
    <path fill="#FFF" fill-rule="evenodd" d="M3.168 39.498A27.312 27.312 0 0 1 0 26.668C0 11.94 11.52 0 25.732 0c4.315 0 8.383 1.101 11.955 3.047a44.062 44.062 0 0 1 9.05-.935c24.363 0 44.112 19.86 44.112 44.36 0 2.404-.19 4.762-.556 7.062C92.646 57.56 94 62.282 94 67.331 94 82.061 82.48 94 68.268 94c-4.92 0-9.52-1.432-13.429-3.915a44.12 44.12 0 0 1-8.102.746c-24.362 0-44.111-19.86-44.111-44.36 0-2.372.185-4.701.542-6.973zm66.517 17.299c0-2.474-.681-4.676-2.042-6.606-1.362-1.93-3.362-3.603-6.003-5.022-2.64-1.418-6.044-2.639-10.21-3.661-3.51-.858-6.265-1.583-8.265-2.177-2.001-.594-3.592-1.344-4.773-2.251-1.18-.908-1.771-2.07-1.771-3.489 0-1.55.803-2.845 2.41-3.884 1.608-1.039 3.625-1.558 6.052-1.558 2.362 0 4.232.395 5.61 1.187 1.377.792 2.574 1.847 3.591 3.167 1.247 1.583 2.354 2.77 3.321 3.562.968.792 2.14 1.188 3.518 1.188 1.903 0 3.37-.495 4.404-1.485 1.033-.99 1.55-2.26 1.55-3.81 0-1.418-.484-2.87-1.452-4.354-.967-1.484-2.378-2.836-4.231-4.057-1.853-1.22-4.166-2.193-6.937-2.92-2.772-.725-5.897-1.088-9.374-1.088-4.428 0-8.208.718-11.34 2.153-3.133 1.435-5.503 3.356-7.11 5.764-1.608 2.408-2.411 4.964-2.411 7.67 0 3.034.869 5.59 2.607 7.668 1.739 2.078 4.06 3.752 6.963 5.022 2.903 1.27 6.666 2.483 11.291 3.637 4.1.99 7.045 2.029 8.832 3.117 1.788 1.089 2.682 2.82 2.682 5.196 0 1.55-.861 2.927-2.583 4.131-1.722 1.204-3.928 1.806-6.618 1.806-3.313 0-5.929-.594-7.848-1.781-1.919-1.188-3.567-2.985-4.945-5.393-.688-1.254-1.41-2.227-2.165-2.92-.754-.692-1.836-1.039-3.247-1.039-1.607 0-2.936.528-3.985 1.584-1.05 1.055-1.575 2.325-1.575 3.81 0 2.242.82 4.477 2.46 6.704 1.64 2.226 4.183 4.082 7.627 5.566 3.444 1.485 7.577 2.227 12.399 2.227 5.051 0 9.34-.685 12.866-2.054 3.526-1.369 6.191-3.38 7.995-6.036 1.805-2.655 2.707-5.847 2.707-9.574z"/>
</svg>
