<svg xmlns="http://www.w3.org/2000/svg" xmlns:xlink="http://www.w3.org/1999/xlink" width="620" height="545" viewBox="0 0 620 545">
    <defs>
        <path id="a" d="M0 0h620v570H0z"/>
    </defs>
    <g fill="none" fill-rule="evenodd" transform="translate(0 -3)">
        <mask id="b" fill="#fff">
            <use xlink:href="#a"/>
        </mask>
        <g stroke="#3F93FF" stroke-width=".5" mask="url(#b)" opacity=".494">
            <path d="M1026.184 265.221c-50.09-84.143-152.96-84.794-223.358 38.463-70.397 123.258-289.863 199.674-443.804 70.873C205.08 245.757 265.202-42.376-76.911 9.466"/>
            <path d="M1024.562 273.064C973.972 190.47 872.3 186.907 797.6 307.052c-74.698 120.146-293.076 201.583-449.732 72.813C191.212 251.095 246.201-33.295-82.226 16.472"/>
            <path d="M1022.94 280.907c-51.091-81.044-151.565-87.52-230.563 29.513-78.998 117.033-296.288 203.492-455.66 74.752C177.345 256.434 227.202-24.215-87.542 23.48"/>
            <path d="M1021.318 288.751c-51.591-79.494-150.868-88.884-234.166 25.038C703.854 427.71 487.65 519.19 325.565 390.482 163.477 261.772 208.202-15.133-92.858 30.487"/>
            <path d="M1020.37 297.017c-52.093-77.945-150.172-90.247-237.77 20.563-87.598 110.809-302.713 207.311-467.515 78.633C150.284 267.533 189.874-5.63-97.5 37.916"/>
            <path d="M1017.4 304.02c-52.594-76.395-149.476-91.61-241.374 16.088C684.129 427.805 470.1 529.329 302.583 400.68 135.067 272.03 169.525 2.61-104.165 44.083"/>
            <path d="M1016.45 312.287c-53.094-74.847-148.778-92.972-244.975 11.612-96.199 104.586-309.139 211.133-479.371 82.513C121.87 277.794 151.198 12.115-108.808 51.514"/>
            <path d="M1014.826 320.133c-53.596-73.297-148.083-94.335-248.58 7.138-100.497 101.473-312.351 213.041-485.298 84.452C108 283.136 132.195 21.2-114.126 58.525"/>
            <path d="M1012.106 328.233c-54.096-71.747-147.384-95.699-252.183 2.663-104.797 98.361-315.562 214.952-491.225 86.393s-156.6-386.753-389.238-351.5"/>
            <path d="M1010.482 336.082c-54.597-70.198-146.688-97.062-255.786-1.813-109.097 95.249-318.776 216.86-497.153 88.334C79.166 294.075 93.093 39.623-125.86 72.802"/>
            <path d="M1009.53 344.352c-55.098-68.648-145.99-98.424-259.389-6.286-113.397 92.135-321.988 218.77-503.08 90.272C65.968 299.84 74.763 49.132-130.504 80.236"/>
            <path d="M1007.23 351.782c-55.599-67.098-145.294-99.787-262.992-10.762-117.698 89.025-325.2 220.68-509.008 92.213C51.423 304.766 55.085 57.798-136.499 86.83"/>
            <path d="M1006.024 358.96c-56.1-65.55-144.598-101.149-266.596-15.237-121.997 85.913-328.413 222.591-514.935 94.154C37.97 309.44 36.501 66.215-141.399 93.173"/>
            <path d="M1003.721 366.393c-56.6-64-143.901-102.512-270.198-19.712-126.298 82.8-331.625 224.5-520.863 96.094C23.422 314.368 16.818 74.885-147.395 99.769"/>
            <path d="M1002.766 374.67c-57.102-62.45-143.205-103.876-273.802-24.187-130.597 79.689-334.838 226.41-526.792 98.033C10.22 320.14-1.516 84.399-152.045 107.21"/>
            <path d="M1001.556 381.855c-57.602-60.901-142.507-105.24-277.405-28.663-134.898 76.578-338.05 228.32-532.719 99.974C-3.236 324.82-20.104 92.822-156.948 113.558"/>
            <path d="M998.408 390.642c-58.104-59.351-141.81-106.602-281.008-33.137-139.199 73.464-341.263 230.23-538.647 101.913C-18.629 331.102-40.63 102.847-163.79 121.51"/>
            <path d="M996.1 398.085c-58.605-57.802-141.114-107.965-284.612-37.613-143.497 70.352-344.475 232.14-544.574 103.854-200.098-128.286-227.232-352.8-336.708-336.21"/>
            <path d="M995.559 405.7c-59.105-56.253-140.418-109.328-288.215-42.089-147.798 67.24-347.688 234.05-550.501 105.794C-45.97 341.15-78.237 120.379-174.03 134.894"/>
            <path d="M993.245 413.149c-59.606-54.704-139.721-110.69-291.819-46.562-152.096 64.127-350.9 235.958-556.428 107.733C-60.53 346.095-97.929 129.066-180.036 141.507"/>
            <path d="M992.277 421.446c-60.107-53.154-139.024-112.054-295.421-51.037C540.458 431.425 342.743 608.278 134.5 480.083-73.744 351.888-116.276 138.6-184.698 148.969"/>
            <path d="M990.379 428.232c-60.608-51.604-138.328-113.416-299.024-55.511-160.699 57.903-357.326 239.778-568.284 111.613C-87.889 356.17-135.553 146.624-190.29 154.92"/>
            <path d="M989.402 436.542c-61.108-50.055-137.63-114.78-302.627-59.988-164.997 54.793-360.537 241.689-574.211 113.553-213.674-128.134-266.472-333.935-307.525-327.714"/>
            <path d="M987.495 443.343c-61.61-48.506-136.933-116.143-306.23-64.463-169.298 51.68-363.75 243.599-580.139 115.494-216.39-128.104-274.32-330.165-301.688-326.016"/>
            <path d="M985.161 450.827c-62.11-46.956-136.236-117.505-309.833-68.937C501.73 430.457 308.364 627.398 89.26 499.324c-219.104-128.075-282.166-326.392-295.85-324.318"/>
            <path d="M983.746 459.838c-62.612-45.407-135.54-118.867-313.438-73.412C492.411 431.881 300.134 633.843 78.314 505.8c-221.818-128.044-290.013-322.619-290.013-322.619"/>
        </g>
    </g>
</svg>
